<svg width="36" height="36" viewBox="0 0 36 36" fill="none" xmlns="http://www.w3.org/2000/svg">
<path d="M8.32484 7.5V6.75C8.09075 6.75 7.87008 6.85931 7.72822 7.04553C7.58637 7.23175 7.5396 7.47352 7.60178 7.69921L8.32484 7.5ZM11.5648 19.26L10.8417 19.4592L10.8448 19.47L11.5648 19.26ZM15.8398 22.5L15.8323 23.25H15.8398V22.5ZM28.9498 22.5V23.25C29.3641 23.25 29.6998 22.9142 29.6998 22.5H28.9498ZM28.9498 7.5H29.6998C29.6998 7.08579 29.3641 6.75 28.9498 6.75V7.5ZM7.96484 8.25C8.37906 8.25 8.71484 7.91421 8.71484 7.5C8.71484 7.08579 8.37906 6.75 7.96484 6.75V8.25ZM3.46484 6.75C3.05063 6.75 2.71484 7.08579 2.71484 7.5C2.71484 7.91421 3.05063 8.25 3.46484 8.25V6.75ZM7.60178 7.69921L10.8418 19.4592L12.2879 19.0608L9.0479 7.30079L7.60178 7.69921ZM10.8448 19.47C11.1603 20.5519 11.8156 21.5036 12.7138 22.1843L13.6198 20.9889C12.9783 20.5026 12.5102 19.8228 12.2849 19.05L10.8448 19.47ZM12.7138 22.1843C13.612 22.865 14.7054 23.2387 15.8323 23.25L15.8474 21.75C15.0424 21.742 14.2614 21.4751 13.6198 20.9889L12.7138 22.1843ZM15.8398 23.25H28.9498V21.75H15.8398V23.25ZM29.6998 22.5V7.5H28.1998V22.5H29.6998ZM28.9498 6.75H8.32484V8.25H28.9498V6.75ZM17.7148 27.75C17.7148 28.5784 17.0433 29.25 16.2148 29.25V30.75C17.8717 30.75 19.2148 29.4069 19.2148 27.75H17.7148ZM16.2148 29.25C15.3864 29.25 14.7148 28.5784 14.7148 27.75H13.2148C13.2148 29.4069 14.558 30.75 16.2148 30.75V29.25ZM14.7148 27.75C14.7148 26.9216 15.3864 26.25 16.2148 26.25V24.75C14.558 24.75 13.2148 26.0931 13.2148 27.75H14.7148ZM16.2148 26.25C17.0433 26.25 17.7148 26.9216 17.7148 27.75H19.2148C19.2148 26.0931 17.8717 24.75 16.2148 24.75V26.25ZM28.2148 27.75C28.2148 28.5784 27.5433 29.25 26.7148 29.25V30.75C28.3717 30.75 29.7148 29.4069 29.7148 27.75H28.2148ZM26.7148 29.25C25.8864 29.25 25.2148 28.5784 25.2148 27.75H23.7148C23.7148 29.4069 25.058 30.75 26.7148 30.75V29.25ZM25.2148 27.75C25.2148 26.9216 25.8864 26.25 26.7148 26.25V24.75C25.058 24.75 23.7148 26.0931 23.7148 27.75H25.2148ZM26.7148 26.25C27.5433 26.25 28.2148 26.9216 28.2148 27.75H29.7148C29.7148 26.0931 28.3717 24.75 26.7148 24.75V26.25ZM7.96484 6.75H3.46484V8.25H7.96484V6.75Z" fill="#30382D"/>
</svg>
