<svg width="38" height="38" viewBox="0 0 38 38" fill="none" xmlns="http://www.w3.org/2000/svg">
<path d="M7.96484 9.5H3.46484M8.32484 9.5L11.5648 21.26C11.8353 22.1874 12.397 23.0031 13.1668 23.5866C13.9367 24.1701 14.8739 24.4903 15.8398 24.5H28.9498V9.5H8.32484ZM18.4648 29.75C18.4648 30.9926 17.4575 32 16.2148 32C14.9722 32 13.9648 30.9926 13.9648 29.75C13.9648 28.5074 14.9722 27.5 16.2148 27.5C17.4575 27.5 18.4648 28.5074 18.4648 29.75ZM28.9648 29.75C28.9648 30.9926 27.9575 32 26.7148 32C25.4722 32 24.4648 30.9926 24.4648 29.75C24.4648 28.5074 25.4722 27.5 26.7148 27.5C27.9575 27.5 28.9648 28.5074 28.9648 29.75Z" stroke="#FDFAF0" stroke-width="1.5" stroke-linecap="round" stroke-linejoin="round"/>
<path d="M29 19C33.9706 19 38 14.7467 38 9.5C38 4.25329 33.9706 0 29 0C24.0294 0 20 4.25329 20 9.5C20 14.7467 24.0294 19 29 19Z" fill="#30382D"/>
<path d="M29 18C33.4183 18 37 14.1944 37 9.5C37 4.80558 33.4183 1 29 1C24.5817 1 21 4.80558 21 9.5C21 14.1944 24.5817 18 29 18Z" fill="#E8DCC6"/>
<path d="M25.9764 9.572C25.9764 8.196 26.2004 7.124 26.6484 6.356C27.0964 5.58 27.8804 5.192 29.0004 5.192C30.1124 5.192 30.8924 5.58 31.3404 6.356C31.7884 7.124 32.0124 8.196 32.0124 9.572C32.0124 10.972 31.7884 12.06 31.3404 12.836C30.8924 13.612 30.1124 14 29.0004 14C27.8804 14 27.0964 13.612 26.6484 12.836C26.2004 12.06 25.9764 10.972 25.9764 9.572ZM30.9324 9.572C30.9324 8.876 30.8844 8.288 30.7884 7.808C30.7004 7.32 30.5124 6.928 30.2244 6.632C29.9444 6.336 29.5364 6.188 29.0004 6.188C28.4564 6.188 28.0404 6.336 27.7524 6.632C27.4724 6.928 27.2844 7.32 27.1884 7.808C27.1004 8.288 27.0564 8.876 27.0564 9.572C27.0564 10.292 27.1004 10.896 27.1884 11.384C27.2844 11.872 27.4724 12.264 27.7524 12.56C28.0404 12.856 28.4564 13.004 29.0004 13.004C29.5364 13.004 29.9444 12.856 30.2244 12.56C30.5124 12.264 30.7004 11.872 30.7884 11.384C30.8844 10.896 30.9324 10.292 30.9324 9.572Z" fill="#30382D"/>
</svg>
