<svg width="36" height="36" viewBox="0 0 36 36" fill="none" xmlns="http://www.w3.org/2000/svg">
<path d="M5.99805 17.25C5.58383 17.25 5.24805 17.5858 5.24805 18C5.24805 18.4142 5.58383 18.75 5.99805 18.75V17.25ZM29.998 18.75C30.4123 18.75 30.748 18.4142 30.748 18C30.748 17.5858 30.4123 17.25 29.998 17.25V18.75ZM5.99805 8.25C5.58383 8.25 5.24805 8.58579 5.24805 9C5.24805 9.41421 5.58383 9.75 5.99805 9.75V8.25ZM29.998 9.75C30.4123 9.75 30.748 9.41421 30.748 9C30.748 8.58579 30.4123 8.25 29.998 8.25V9.75ZM5.99805 26.25C5.58383 26.25 5.24805 26.5858 5.24805 27C5.24805 27.4142 5.58383 27.75 5.99805 27.75V26.25ZM29.998 27.75C30.4123 27.75 30.748 27.4142 30.748 27C30.748 26.5858 30.4123 26.25 29.998 26.25V27.75ZM5.99805 18.75H29.998V17.25H5.99805V18.75ZM5.99805 9.75H29.998V8.25H5.99805V9.75ZM5.99805 27.75H29.998V26.25H5.99805V27.75Z" fill="#FDFAF0"/>
</svg>
