<svg width="30" height="27" viewBox="0 0 30 27" fill="none" xmlns="http://www.w3.org/2000/svg">
<mask id="path-1-inside-1_183_156" fill="white">
<path fill-rule="evenodd" clip-rule="evenodd" d="M15.0514 26.1027L15.0514 26.1027L26.3335 14.8206L26.3335 14.8206L27.4617 13.6924C30.5772 10.5769 30.5772 5.52577 27.4617 2.4103C24.3462 -0.705174 19.295 -0.705173 16.1796 2.4103L15.0514 3.53848L13.9232 2.4103C10.8077 -0.705172 5.75656 -0.705169 2.64109 2.4103C-0.47438 5.52577 -0.474378 10.577 2.64109 13.6924L3.76926 14.8206L3.76923 14.8206L15.0514 26.1027L15.0514 26.1027Z"/>
</mask>
<path d="M15.0514 26.1027L13.6372 27.517L15.0514 28.9312L16.4656 27.517L15.0514 26.1027ZM15.0514 26.1027L16.4656 24.6885L15.0514 23.2743L13.6372 24.6885L15.0514 26.1027ZM26.3335 14.8206L27.7478 16.2348L29.162 14.8206L27.7478 13.4064L26.3335 14.8206ZM26.3335 14.8206L24.9193 13.4064L23.5051 14.8206L24.9193 16.2348L26.3335 14.8206ZM15.0514 3.53848L13.6372 4.95269L15.0514 6.3669L16.4656 4.95269L15.0514 3.53848ZM2.64109 13.6924L1.22688 15.1066L2.64109 13.6924ZM3.76926 14.8206L5.18348 16.2348L6.59769 14.8206L5.18348 13.4064L3.76926 14.8206ZM3.76923 14.8206L2.35502 13.4064L0.940806 14.8206L2.35502 16.2348L3.76923 14.8206ZM15.0514 26.1027L13.6371 27.517L15.0514 28.9312L16.4656 27.517L15.0514 26.1027ZM16.4656 24.6885L16.4656 24.6885L13.6372 27.5169L13.6372 27.517L16.4656 24.6885ZM24.9193 13.4064L13.6372 24.6885L16.4656 27.517L27.7478 16.2348L24.9193 13.4064ZM24.9193 16.2348L24.9193 16.2348L27.7478 13.4064L27.7477 13.4064L24.9193 16.2348ZM26.0475 12.2782L24.9193 13.4064L27.7477 16.2348L28.8759 15.1066L26.0475 12.2782ZM26.0475 3.82451C28.3819 6.15893 28.3819 9.94378 26.0475 12.2782L28.8759 15.1066C32.7724 11.2101 32.7724 4.8926 28.8759 0.996082L26.0475 3.82451ZM17.5938 3.82451C19.9282 1.49009 23.713 1.49009 26.0475 3.82451L28.8759 0.996082C24.9794 -2.90044 18.6619 -2.90043 14.7653 0.996084L17.5938 3.82451ZM16.4656 4.95269L17.5938 3.82451L14.7653 0.996084L13.6372 2.12426L16.4656 4.95269ZM12.509 3.82451L13.6372 4.95269L16.4656 2.12426L15.3374 0.996085L12.509 3.82451ZM4.0553 3.82451C6.38973 1.49009 10.1746 1.49009 12.509 3.82451L15.3374 0.996085C11.4409 -2.90043 5.12339 -2.90043 1.22688 0.996088L4.0553 3.82451ZM4.05531 12.2782C1.72088 9.94379 1.72088 6.15894 4.0553 3.82451L1.22688 0.996088C-2.66964 4.89261 -2.66964 11.2101 1.22688 15.1066L4.05531 12.2782ZM5.18348 13.4064L4.05531 12.2782L1.22688 15.1066L2.35505 16.2348L5.18348 13.4064ZM5.18345 16.2348L5.18348 16.2348L2.35505 13.4064L2.35502 13.4064L5.18345 16.2348ZM16.4656 24.6885L5.18345 13.4064L2.35502 16.2348L13.6371 27.517L16.4656 24.6885ZM13.6372 24.6885L13.6371 24.6885L16.4656 27.517L16.4656 27.5169L13.6372 24.6885Z" fill="#30382D" mask="url(#path-1-inside-1_183_156)"/>
</svg>
