<svg width="45" height="45" viewBox="0 0 45 45" fill="none" xmlns="http://www.w3.org/2000/svg">
<path fill-rule="evenodd" clip-rule="evenodd" d="M22.5 0C10.0736 0 0 10.0736 0 22.5C0 34.9264 10.0736 45 22.5 45C34.9264 45 45 34.9264 45 22.5C45 10.0736 34.9264 0 22.5 0ZM10.8015 18.6355H15.9005V33.9558H10.8015V18.6355ZM16.2363 13.8963C16.2032 12.3941 15.1291 11.25 13.3847 11.25C11.6404 11.25 10.5 12.3941 10.5 13.8963C10.5 15.3673 11.6067 16.5444 13.3185 16.5444H13.3511C15.1291 16.5444 16.2363 15.3673 16.2363 13.8963ZM28.4186 18.2757C31.7739 18.2757 34.2894 20.4659 34.2894 25.1716L34.2892 33.9558H29.1904V25.7594C29.1904 23.7007 28.4526 22.2958 26.6067 22.2958C25.198 22.2958 24.3589 23.2429 23.9904 24.1576C23.8556 24.4855 23.8225 24.9422 23.8225 25.4001V33.9562H18.7229C18.7229 33.9562 18.7901 20.0735 18.7229 18.6359H23.8225V20.8059C24.4993 19.7627 25.7113 18.2757 28.4186 18.2757Z" fill="#FDFAF0" fill-opacity="0.7"/>
</svg>
