<svg width="124" height="124" viewBox="0 0 124 124" fill="none" xmlns="http://www.w3.org/2000/svg">
<path d="M121.555 93.8538C121.555 109.063 94.8928 121.341 62 121.341C29.1071 121.341 2.4447 109.063 2.4447 93.8538" stroke="#2D2D34" stroke-width="4" stroke-linecap="round" stroke-linejoin="round"/>
<path d="M84.9053 48.0415C84.9053 60.6855 66.5806 80.1097 61.9994 80.1097C57.4182 80.1097 39.0935 60.6855 39.0935 48.0415C39.0935 29.7168 61.9994 2.22974 61.9994 2.22974C61.9994 2.22974 84.9053 29.7168 84.9053 48.0415Z" stroke="#2D2D34" stroke-width="4" stroke-linecap="round" stroke-linejoin="round"/>
<path d="M42.5754 33.2895C31.1195 29.074 19.1735 26.3338 7.02551 25.135C7.02551 25.135 10.2323 60.7766 23.2429 73.6955C32.4052 82.8578 58.8844 83.4076 62.0912 80.2008" stroke="#2D2D34" stroke-width="4" stroke-linecap="round" stroke-linejoin="round"/>
<path d="M81.4234 33.2895C92.8794 29.074 104.825 26.3338 116.973 25.135C116.973 25.135 113.766 60.7766 100.756 73.6955C91.5936 82.8578 65.1144 83.4076 61.9076 80.2008" stroke="#2D2D34" stroke-width="4" stroke-linecap="round" stroke-linejoin="round"/>
</svg>
