<svg width="45" height="45" viewBox="0 0 45 45" fill="none" xmlns="http://www.w3.org/2000/svg">
<path fill-rule="evenodd" clip-rule="evenodd" d="M22.5 0C34.9264 0 45 10.0736 45 22.5C45 34.9264 34.9264 45 22.5 45C10.0736 45 0 34.9264 0 22.5C0 10.0736 10.0736 0 22.5 0ZM28.4945 19.6485C28.385 18.7595 28.1118 18.0614 27.6265 17.4431C26.9964 16.6469 26.1911 16.1701 24.9989 15.8873C24.222 15.6987 23.908 15.7204 23.627 15.9771C23.3653 16.2176 23.3142 16.6996 23.5142 17.0118C23.6549 17.2384 23.8172 17.3196 24.2685 17.4082C24.8696 17.5188 25.2849 17.6623 25.6628 17.8783C26.4647 18.3414 26.8382 19.066 26.8782 20.2392C26.8969 20.79 26.9445 20.9593 27.1368 21.1547C27.4934 21.5118 28.128 21.4424 28.3972 21.015C28.496 20.854 28.5111 20.7838 28.5215 20.4098C28.5284 20.1782 28.5184 19.8336 28.4945 19.6485ZM28.5052 14.1939C30.4118 15.7357 31.4772 17.9271 31.6356 20.6509C31.7022 21.7237 31.6137 22.0731 31.2352 22.2722C30.8937 22.4566 30.5067 22.3959 30.2413 22.1182C30.0654 21.9377 29.9979 21.6907 30.0004 21.2534C30.0082 20.0442 29.7296 18.6939 29.2767 17.7569C28.7524 16.6664 27.9421 15.7384 26.9227 15.0599C26.0299 14.464 24.8481 14.0615 23.7024 13.9612C22.9592 13.8962 22.6938 13.7703 22.5512 13.414C22.4628 13.2009 22.4862 12.8325 22.5898 12.6675C22.6877 12.5153 22.9075 12.347 23.063 12.3025C23.2276 12.2545 24.1876 12.3385 24.709 12.4421C26.1324 12.7318 27.4309 13.3275 28.5052 14.1939ZM35.1115 31.1403C35.0582 30.9846 34.9339 30.7445 34.8451 30.6066C34.2855 29.7617 31.2792 27.409 29.7783 26.6395C28.9213 26.1993 28.2862 26.0525 27.8155 26.1903C27.3093 26.3327 27.0428 26.5684 26.1947 27.6224C25.8528 28.0449 25.502 28.4408 25.4087 28.503C25.1778 28.6631 24.7248 28.7921 24.4051 28.7921C23.6635 28.7876 22.318 28.3073 21.2833 27.6758C20.4796 27.1866 19.4494 26.3105 18.6589 25.4432C17.7263 24.4248 17.0914 23.5264 16.5896 22.5124C15.9413 21.2094 15.777 20.4133 16.0478 19.8306C16.1144 19.6839 16.2033 19.5283 16.2432 19.4793C16.2832 19.4349 16.7006 19.0924 17.1624 18.7188C18.0683 17.9984 18.2148 17.8338 18.3836 17.3401C18.5967 16.713 18.539 16.0726 18.2104 15.4278C17.9573 14.9385 17.2956 13.8712 16.8161 13.1818C16.181 12.2746 14.6002 10.3356 14.2848 10.0731C13.7164 9.61061 12.9882 9.53051 12.1844 9.84189C11.3363 10.171 9.74652 11.4518 9.06709 12.3458C8.45428 13.1552 8.219 13.7289 8.18344 14.4849C8.15238 15.1075 8.20564 15.3655 8.53426 16.1616C11.1054 22.4057 14.9421 27.3912 20.2132 31.3494C22.9663 33.4173 25.8217 34.9917 28.7836 36.0681C30.511 36.6951 31.2614 36.7262 32.1451 36.2104C32.5181 35.9879 33.4418 35.0407 33.9569 34.3513C34.8095 33.2039 35.1248 32.6747 35.2136 32.2522C35.2758 31.9631 35.2269 31.4606 35.1115 31.1403ZM33.9761 17.063C34.517 18.472 34.7764 19.7358 34.8333 21.2765C34.8423 21.5809 34.8381 22.1385 34.8184 22.5163C34.7773 23.2404 34.738 23.3843 34.5295 23.5759C34.1945 23.8903 33.5413 23.8153 33.2936 23.4364C33.1643 23.2332 33.1461 23.0843 33.1711 22.2382C33.243 19.7356 32.7368 17.7761 31.5175 15.8167C30.0605 13.466 27.8811 11.8824 25.047 11.1077C24.3242 10.9105 23.7152 10.7903 22.7679 10.6627C22.1509 10.582 22.0158 10.5478 21.8635 10.4541C21.4034 10.1594 21.3973 9.41331 21.8559 9.11417C22.0926 8.95626 22.2671 8.9492 23.0385 9.04799C25.3005 9.33067 27.3189 10.0028 28.9775 11.0185C30.1662 11.7475 30.9158 12.4024 31.8808 13.5493C32.9016 14.7726 33.442 15.677 33.9761 17.063Z" fill="#FDFAF0" fill-opacity="0.7"/>
</svg>
