<svg width="121" height="93" viewBox="0 0 121 93" fill="none" xmlns="http://www.w3.org/2000/svg">
<path d="M11.6674 68.5111C16.5647 68.5111 20.5348 62.556 20.5348 55.21C20.5348 47.864 16.5647 41.9089 11.6674 41.9089C6.77011 41.9089 2.80005 47.864 2.80005 55.21C2.80005 62.556 6.77011 68.5111 11.6674 68.5111Z" stroke="#30382D" stroke-width="4" stroke-linecap="round" stroke-linejoin="round"/>
<path d="M38.2696 28.608C43.1669 28.608 47.137 22.6529 47.137 15.3069C47.137 7.96095 43.1669 2.00586 38.2696 2.00586C33.3723 2.00586 29.4022 7.96095 29.4022 15.3069C29.4022 22.6529 33.3723 28.608 38.2696 28.608Z" stroke="#30382D" stroke-width="4" stroke-linecap="round" stroke-linejoin="round"/>
<path d="M82.6064 28.608C87.5037 28.608 91.4738 22.6529 91.4738 15.3069C91.4738 7.96095 87.5037 2.00586 82.6064 2.00586C77.7091 2.00586 73.739 7.96095 73.739 15.3069C73.739 22.6529 77.7091 28.608 82.6064 28.608Z" stroke="#30382D" stroke-width="4" stroke-linecap="round" stroke-linejoin="round"/>
<path d="M109.209 68.5111C114.106 68.5111 118.076 62.556 118.076 55.21C118.076 47.864 114.106 41.9089 109.209 41.9089C104.311 41.9089 100.341 47.864 100.341 55.21C100.341 62.556 104.311 68.5111 109.209 68.5111Z" stroke="#30382D" stroke-width="4" stroke-linecap="round" stroke-linejoin="round"/>
<path d="M87.0402 72.9448C87.0402 85.1817 72.675 90.6795 60.4381 90.6795C48.2011 90.6795 33.8359 85.1817 33.8359 72.9448C33.8359 60.7078 42.7033 41.9089 60.4381 41.9089C78.1728 41.9089 87.0402 60.7078 87.0402 72.9448Z" stroke="#30382D" stroke-width="4" stroke-linecap="round" stroke-linejoin="round"/>
</svg>
